<?xml version="1.0"?>
<svg xmlns="http://www.w3.org/2000/svg" height="512px" viewBox="0 0 512 512" width="512px"><path d="m437.019531 74.980469c-48.351562-48.351563-112.640625-74.980469-181.019531-74.980469s-132.667969 26.628906-181.019531 74.980469c-48.351563 48.351562-74.980469 112.640625-74.980469 181.019531s26.628906 132.667969 74.980469 181.019531c48.351562 48.351563 112.636719 74.980469 181.019531 74.980469 4.160156 0 7.53125-3.371094 7.53125-7.53125 0-4.15625-3.371094-7.527344-7.53125-7.527344-64.359375 0-124.863281-25.0625-170.371094-70.570312-45.507812-45.507813-70.570312-106.015625-70.570312-170.371094s25.0625-124.863281 70.570312-170.371094c45.507813-45.507812 106.011719-70.570312 170.371094-70.570312s124.863281 25.0625 170.371094 70.570312c45.507812 45.507813 70.566406 106.011719 70.566406 170.371094 0 121.75-91 224.574219-211.675781 239.179688-4.128907.5-7.070313 4.253906-6.570313 8.382812s4.261719 7.070312 8.382813 6.570312c128.226562-15.523437 224.925781-124.777343 224.925781-254.132812 0-68.378906-26.628906-132.667969-74.980469-181.019531zm0 0" fill="#e5001d"/><path d="m456.113281 326.367188c.746094.234374 1.5.34375 2.242188.34375 3.207031 0 6.179687-2.066407 7.1875-5.289063 6.582031-21.101563 9.917969-43.113281 9.917969-65.421875 0-58.621094-22.828126-113.734375-64.277344-155.183594-41.453125-41.453125-96.566406-64.277344-155.183594-64.277344-41.410156 0-81.738281 11.589844-116.632812 33.523438-33.941407 21.332031-61.410157 51.5-79.433594 87.234375-1.871094 3.714844-.378906 8.242187 3.332031 10.117187 3.710937 1.871094 8.242187.378907 10.113281-3.332031 16.792969-33.292969 42.378906-61.394531 74.003906-81.269531 30.371094-19.089844 65.171876-29.765625 101.085938-31.074219v34.105469c0 4.15625 3.371094 7.53125 7.53125 7.53125s7.53125-3.375 7.53125-7.53125v-34.09375c106.730469 3.886719 192.832031 89.988281 196.71875 196.71875h-34.09375c-4.160156 0-7.53125 3.371094-7.53125 7.53125s3.371094 7.53125 7.53125 7.53125h34.105469c-.660157 18.203125-3.710938 36.136719-9.097657 53.40625-1.238281 3.972656.976563 8.195312 4.949219 9.429688zm0 0" fill="#e5001d"/><path d="m47.898438 186.117188c-7.539063 22.460937-11.359376 45.972656-11.359376 69.882812 0 58.621094 22.828126 113.730469 64.277344 155.183594 41.453125 41.449218 96.5625 64.277344 155.183594 64.277344 42.230469 0 83.238281-12.023438 118.597656-34.773438 34.421875-22.148438 61.925782-53.339844 79.535156-90.195312 1.789063-3.75.203126-8.246094-3.550781-10.039063-3.753906-1.792969-8.25-.207031-10.039062 3.546875-16.402344 34.332031-42.023438 63.386719-74.09375 84.023438-30.816407 19.828124-66.253907 30.90625-102.921875 32.242187v-34.109375c0-4.101562-3.425782-7.53125-7.527344-7.53125-4.105469 0-7.53125 3.429688-7.53125 7.53125v34.09375c-106.730469-3.886719-192.832031-89.988281-196.71875-196.71875h34.09375c4.160156 0 7.53125-3.371094 7.53125-7.53125s-3.371094-7.53125-7.53125-7.53125h-34.101562c.710937-19.679688 4.207031-39.003906 10.433593-57.558594 1.324219-3.941406-.796875-8.210937-4.742187-9.535156-3.945313-1.324219-8.210938.800781-9.535156 4.742188zm0 0" fill="#e5001d"/><path d="m256 290.175781c18.84375 0 34.175781-15.332031 34.175781-34.175781 0-10.890625-5.128906-20.601562-13.09375-26.863281v-71.613281c0-11.625-9.457031-21.082032-21.082031-21.082032s-21.082031 9.457032-21.082031 21.082032v20.617187l-32.105469-55.355469c-2.824219-4.871094-7.378906-8.351562-12.820312-9.796875-6.496094-1.730469-13.527344-.203125-18.746094 4.03125-4.761719 3.867188-7.617188 9.765625-7.757813 15.894531-.089843 3.855469.914063 7.691407 2.847657 11.027344l57.816406 99.691406c-1.496094 3.839844-2.328125 8.007813-2.328125 12.367188 0 18.84375 15.332031 34.175781 34.175781 34.175781zm0-15.0625c-7.601562 0-14.644531-4.683593-17.609375-11.679687-3.332031-7.867188-.875-17.308594 5.917969-22.503906 6.207031-4.75 15.015625-5.320313 21.691406-1.203126 7.019531 4.324219 10.550781 12.90625 8.542969 20.914063-2.101563 8.398437-9.886719 14.472656-18.542969 14.472656zm-6.023438-117.589843c0-3.324219 2.703126-6.023438 6.023438-6.023438s6.023438 2.699219 6.023438 6.023438v64.835937c-3.972657-.707031-8.074219-.707031-12.046876 0zm-71.222656-25.710938c1.347656-5.070312 8.398438-6.015625 11.03125-1.472656l45.128906 77.820312v20.957032c-.40625.320312-.808593.652343-1.199218.984374l-54.351563-93.71875c-.808593-1.390624-1.023437-3.011718-.609375-4.570312zm0 0" fill="#e5001d"/></svg>
