<svg xmlns="http://www.w3.org/2000/svg" viewBox="0 0 404.487 404.487" width="512" height="512"><path d="M396.874 160.596C386.191 101.402 366.697 52.7 356.027 28.937a34.198 34.198 0 00-31.762-20.189L207.76 10.576c-12.585.198-24.361 7.064-30.731 17.921-7.206 12.28-6.543 27.723 1.687 39.341l26.625 37.589c9.316 13.15 26.234 18.07 41.151 11.961l37.69-15.436c1.714 10.526-.115 20.756-5.489 30.483-13.42 24.29-20.512 50.669-20.767 76.826-8.643-6.027-17.52-10.99-26.6-14.852-19.362-8.236-39.631-11.521-60.233-9.764a130.99 130.99 0 00-12.937 1.763c-21.709-56.849-61.684-74.222-91.821-78.69-33.231-4.927-61.095 4.345-62.265 4.742a5.997 5.997 0 00-3.752 7.602 6.004 6.004 0 007.603 3.764c.263-.088 26.642-8.801 57.071-4.175 38.197 5.807 65.536 29.194 81.36 69.524-20.994 5.92-34.15 15.058-34.882 15.574a6 6 0 00-1.443 8.362 6 6 0 008.362 1.443c.215-.152 21.921-15.241 53.725-17.952 18.634-1.59 36.977 1.389 54.517 8.85 22.167 9.429 43.187 26.103 62.479 49.559a5.984 5.984 0 004.637 2.189 5.999 5.999 0 004.631-9.811c-9.042-10.995-18.478-20.601-28.253-28.784l-.046-.904c-1.379-26.85 5.233-54.327 19.121-79.462 7.192-13.018 9.301-26.768 6.324-40.93l18.401-7.536a6 6 0 10-4.549-11.104l-67.43 27.616c-9.716 3.981-20.74.774-26.81-7.793l-26.625-37.589a24.331 24.331 0 01-1.129-26.332c4.264-7.267 12.146-11.863 20.569-11.995l116.506-1.828c8.906-.133 16.987 5.004 20.626 13.106 10.445 23.262 29.529 70.938 39.984 128.875 12.488 69.198 9.204 132.075-9.759 186.945-63.467 25.415-117.936 36.424-166.437 33.655-32.951-1.883-63.311-10.305-90.235-25.034-30.249-16.546-57.03-41.549-79.66-74.296 12.837-4.378 25.818-3.637 26.049-3.621a5.998 5.998 0 006.386-5.578 6 6 0 00-5.577-6.395c-.501-.034-12.461-.801-25.882 2.73-18.605 4.895-31.025 15.652-35.919 31.107a6 6 0 0011.441 3.622c2.372-7.491 7.032-12.796 12.581-16.551 45.092 66.075 105.688 101.742 180.132 105.995 5.095.291 10.242.437 15.459.437 46.969-.001 99.074-11.826 158.677-35.959a5.998 5.998 0 003.4-3.549c20.455-57.465 24.208-123.288 11.151-195.641z" fill="#fa002e"/></svg>