<svg xmlns="http://www.w3.org/2000/svg" height="512" width="512"><path d="M437.02 74.98C388.668 26.63 324.379 0 256 0S123.332 26.629 74.98 74.98C26.63 123.332 0 187.621 0 256s26.629 132.668 74.98 181.02C123.332 485.37 187.617 512 256 512a7.53 7.53 0 100-15.059c-64.36 0-124.863-25.062-170.371-70.57C40.12 380.863 15.059 320.355 15.059 256S40.12 131.137 85.629 85.629C131.137 40.12 191.64 15.059 256 15.059s124.863 25.062 170.371 70.57C471.88 131.137 496.937 191.64 496.937 256c0 121.75-91 224.574-211.675 239.18a7.532 7.532 0 001.812 14.953C415.301 494.609 512 385.355 512 256c0-68.379-26.629-132.668-74.98-181.02zm0 0" fill="#e5001d"/><path d="M456.113 326.367c.746.235 1.5.344 2.242.344a7.538 7.538 0 007.188-5.29c6.582-21.1 9.918-43.112 9.918-65.421 0-58.621-22.828-113.734-64.277-155.184C369.73 59.363 314.617 36.54 256 36.54c-41.41 0-81.738 11.59-116.633 33.523-33.941 21.333-61.41 51.5-79.433 87.235a7.537 7.537 0 003.332 10.117 7.532 7.532 0 0010.113-3.332 205.099 205.099 0 0174.004-81.27c30.37-19.09 65.172-29.765 101.086-31.074v34.106a7.532 7.532 0 0015.063 0V51.75c106.73 3.887 192.831 89.988 196.718 196.719h-34.094c-4.16 0-7.531 3.37-7.531 7.531s3.371 7.531 7.531 7.531h34.106c-.66 18.203-3.711 36.137-9.098 53.406a7.526 7.526 0 004.95 9.43zM47.898 186.117C40.36 208.578 36.54 232.09 36.54 256c0 58.621 22.828 113.73 64.277 155.184C142.27 452.633 197.38 475.46 256 475.46c42.23 0 83.238-12.024 118.598-34.774 34.422-22.148 61.925-53.34 79.535-90.195a7.532 7.532 0 00-3.551-10.039c-3.754-1.793-8.25-.207-10.039 3.547-16.402 34.332-42.023 63.387-74.094 84.023-30.816 19.829-66.254 30.907-102.922 32.243v-34.11c0-4.101-3.425-7.531-7.527-7.531-4.105 0-7.531 3.43-7.531 7.531v34.094C141.739 456.362 55.637 370.261 51.75 263.53h34.094c4.16 0 7.531-3.37 7.531-7.531s-3.371-7.531-7.531-7.531H51.742c.711-19.68 4.207-39.004 10.434-57.559a7.528 7.528 0 00-4.742-9.535 7.53 7.53 0 00-9.536 4.742zm0 0" fill="#e5001d"/><path d="M256 290.176c18.844 0 34.176-15.332 34.176-34.176 0-10.89-5.13-20.602-13.094-26.863v-71.614c0-11.625-9.457-21.082-21.082-21.082s-21.082 9.457-21.082 21.082v20.618l-32.106-55.356a20.938 20.938 0 00-12.82-9.797c-6.496-1.73-13.527-.203-18.746 4.032-4.762 3.867-7.617 9.765-7.758 15.894a21.089 21.089 0 002.848 11.027l57.816 99.692A33.989 33.989 0 00221.824 256c0 18.844 15.332 34.176 34.176 34.176zm0-15.063c-7.602 0-14.645-4.683-17.61-11.68-3.331-7.867-.874-17.308 5.919-22.503 6.207-4.75 15.015-5.32 21.691-1.203 7.02 4.324 10.55 12.906 8.543 20.914-2.102 8.398-9.887 14.472-18.543 14.472zm-6.023-117.59c0-3.324 2.703-6.023 6.023-6.023s6.023 2.7 6.023 6.023v64.836a34.476 34.476 0 00-12.046 0zm-71.223-25.71c1.348-5.07 8.398-6.016 11.031-1.473l45.13 77.82v20.957c-.407.32-.81.653-1.2.985l-54.352-93.72a5.973 5.973 0 01-.61-4.57zm0 0" fill="#e5001d"/></svg>