<?xml version="1.0" encoding="iso-8859-1"?>
<!-- Generator: Adobe Illustrator 21.0.0, SVG Export Plug-In . SVG Version: 6.00 Build 0)  -->
<svg xmlns="http://www.w3.org/2000/svg" xmlns:xlink="http://www.w3.org/1999/xlink" version="1.1" id="Capa_1" x="0px" y="0px" viewBox="0 0 512 512" style="enable-background:new 0 0 512 512;" xml:space="preserve" width="512" height="512">
<g>
	<path d="M457,205.25h-63.787L292.437,104.474C307.043,74.652,285.153,39.75,252,39.75c-33.206,0-55.015,34.959-40.437,64.724   L110.787,205.25H55c-30.327,0-55,24.673-55,55v157c0,30.327,24.673,55,55,55h402c30.327,0,55-24.673,55-55v-157   C512,229.923,487.327,205.25,457,205.25z M252,69.75c8.271,0,15,6.729,15,15s-6.729,15-15,15s-15-6.729-15-15   S243.729,69.75,252,69.75z M232.955,125.508c11.75,5.513,25.73,5.799,38.09,0l79.742,79.742H153.213L232.955,125.508z M482,417.25   c0,13.785-11.215,25-25,25H55c-13.785,0-25-11.215-25-25v-157c0-13.785,11.215-25,25-25h402c13.785,0,25,11.215,25,25V417.25z"/>
	<path d="M179.032,329.75h-22c-8.284,0-15,6.716-15,15s6.716,15,15,15h6.899c-1.007,10.092-9.545,18-19.899,18   c-11.028,0-20-8.972-20-20v-38c0-20.895,28.231-27.711,37.798-9.138c3.793,7.364,12.841,10.26,20.204,6.465   c7.365-3.794,10.26-12.84,6.466-20.204c-8.619-16.73-25.658-27.123-44.468-27.123c-27.57,0-50,22.43-50,50v38   c0,37.526,40.057,61.726,73.217,44.262c8.773,11.145,26.783,4.963,26.783-9.262v-48C194.032,336.466,187.316,329.75,179.032,329.75   z"/>
	<path d="M298.48,272.281c-6.888-4.604-16.203-2.755-20.807,4.131l-23.642,35.354l-23.642-35.354   c-4.605-6.887-13.923-8.734-20.807-4.131c-6.887,4.605-8.736,13.921-4.131,20.808l33.579,50.215v49.447c0,8.284,6.716,15,15,15   s15-6.716,15-15v-49.447l33.579-50.215C307.217,286.202,305.367,276.886,298.48,272.281z"/>
	<path d="M390.504,276.404l-24.364,36.386l-24.365-36.387c-8.224-12.277-27.464-6.431-27.464,8.346v108c0,8.284,6.716,15,15,15   s15-6.716,15-15v-58.64l9.365,13.986c5.935,8.863,18.994,8.862,24.928,0l9.364-13.985v58.639c0,8.284,6.716,15,15,15   s15-6.716,15-15v-108C417.968,269.977,398.73,264.123,390.504,276.404z"/>
</g>















</svg>
